<?xml version="1.0" encoding="UTF-8" standalone="no"?> <svg id="Capa_1" enable-background="new 0 0 512 512" height="512" viewBox="0 0 512 512" width="512" xmlns="http://www.w3.org/2000/svg"><g><g><path d="m326 512h-260c-8.284 0-15-6.716-15-15v-380c0-8.284 6.716-15 15-15h380c8.284 0 15 6.716 15 15v260c0 3.978-1.58 7.793-4.394 10.606l-120 120c-2.812 2.813-6.627 4.394-10.606 4.394z" fill="#ffe278"/></g><path d="m456.606 387.606c2.814-2.813 4.394-6.628 4.394-10.606v-260c0-8.284-6.716-15-15-15h-190v410h70c3.979 0 7.794-1.581 10.606-4.394z" fill="#ffd845"/><path d="m461 377h-120c-8.284 0-15 6.716-15 15v120c3.979 0 7.794-1.581 10.606-4.394l120-120c2.814-2.813 4.394-6.628 4.394-10.606z" fill="#ffcb00"/><g><path d="m386 272h-260c-8.284 0-15-6.716-15-15s6.716-15 15-15h260c8.284 0 15 6.716 15 15s-6.716 15-15 15z" fill="#556e82"/></g><g><path d="m386 212h-260c-8.284 0-15-6.716-15-15s6.716-15 15-15h260c8.284 0 15 6.716 15 15s-6.716 15-15 15z" fill="#556e82"/></g><g><path d="m386 332h-260c-8.284 0-15-6.716-15-15s6.716-15 15-15h260c8.284 0 15 6.716 15 15s-6.716 15-15 15z" fill="#556e82"/></g><g><path d="m266 392h-140c-8.284 0-15-6.716-15-15s6.716-15 15-15h140c8.284 0 15 6.716 15 15s-6.716 15-15 15z" fill="#556e82"/></g><g><path d="m266 452h-140c-8.284 0-15-6.716-15-15s6.716-15 15-15h140c8.284 0 15 6.716 15 15s-6.716 15-15 15z" fill="#556e82"/></g><g><path d="m256.014 150.001c-4.848 0-9.604-2.345-12.494-6.681l-43.365-65.048c-4.596-6.893-2.733-16.206 4.16-20.801 6.893-4.594 16.206-2.733 20.801 4.161l43.365 65.048c4.596 6.893 2.733 16.206-4.16 20.801-2.557 1.705-5.448 2.52-8.307 2.52z" fill="#fffbf4"/></g><g><path d="m196 90c-24.813 0-45-20.187-45-45s20.187-45 45-45 45 20.187 45 45-20.187 45-45 45z" fill="#93c6ec"/></g><g fill="#3c4655"><path d="m386 242h-130v30h130c8.284 0 15-6.716 15-15s-6.716-15-15-15z"/><path d="m386 182h-130v30h130c8.284 0 15-6.716 15-15s-6.716-15-15-15z"/><path d="m386 302h-130v30h130c8.284 0 15-6.716 15-15s-6.716-15-15-15z"/><path d="m266 362h-10v30h10c8.284 0 15-6.716 15-15s-6.716-15-15-15z"/><path d="m266 422h-10v30h10c8.284 0 15-6.716 15-15s-6.716-15-15-15z"/></g><path d="m256 107.959v42.042c.005 0 .009.001.014.001 2.859 0 5.75-.816 8.307-2.521 6.894-4.595 8.756-13.909 4.16-20.801z" fill="#f9f4c8"/></g></svg>