<?xml version="1.0" standalone="no"?>
<!DOCTYPE svg PUBLIC "-//W3C//DTD SVG 20010904//EN"
 "http://www.w3.org/TR/2001/REC-SVG-20010904/DTD/svg10.dtd">
<svg version="1.0" xmlns="http://www.w3.org/2000/svg"
 width="225.000000pt" height="225.000000pt" viewBox="0 0 225.000000 225.000000"
 preserveAspectRatio="xMidYMid meet">
<metadata>
Created by potrace 1.16, written by Peter Selinger 2001-2019
</metadata>
<g transform="translate(0.000000,225.000000) scale(0.100000,-0.100000)"
fill="#000000" stroke="none">
<path d="M1472 2230 c-55 -34 -62 -65 -62 -290 0 -200 0 -201 25 -225 40 -41
105 -33 130 16 22 42 22 416 0 416 -13 0 -15 -28 -15 -194 0 -180 -1 -194 -20
-213 -11 -11 -27 -20 -35 -20 -8 0 -24 9 -35 20 -19 19 -20 33 -20 208 0 169
2 190 20 220 11 18 31 37 44 43 54 25 116 -43 116 -128 0 -32 4 -43 15 -43 22
0 19 85 -4 137 -32 69 -97 91 -159 53z"/>
<path d="M1720 1532 c-63 -65 -142 -156 -175 -203 l-60 -85 -31 55 c-24 44
-37 57 -58 59 -15 2 -33 -2 -41 -8 -11 -10 -8 -17 20 -41 19 -17 37 -40 41
-52 4 -12 15 -46 26 -74 19 -52 19 -52 43 -37 14 9 44 54 69 100 57 107 134
209 230 304 72 71 91 100 64 100 -7 0 -64 -53 -128 -118z"/>
</g>
</svg>
